<?xml version="1.0" encoding="UTF-8"?>
<svg version="1.1" xmlns="http://www.w3.org/2000/svg" width="593" height="593">
<path d="M0 0 C2.3351126 1.18782096 4.67106443 2.37399342 7.0078125 3.55859375 C8.74272949 4.4400708 8.74272949 4.4400708 10.51269531 5.33935547 C15.10171349 7.64880365 19.73181717 9.86451283 24.375 12.0625 C35.24112781 17.22454667 46.06192925 22.47788108 56.875 27.75 C57.76291229 28.1828833 58.65082458 28.6157666 59.56564331 29.06176758 C71.6764464 34.96970444 83.75236315 40.94252379 95.79171753 46.99459839 C104.35747351 51.29922412 112.96820875 55.4878716 121.63330078 59.58813477 C130.75828757 63.92880178 139.7827622 68.46567495 148.8125 73 C158.4404061 77.83460905 168.06698275 82.65544222 177.8125 87.25 C189.60935297 92.8202915 201.26744222 98.67012077 212.9375 104.5 C213.93104492 104.99552368 214.92458984 105.49104736 215.94824219 106.00158691 C218.80260272 107.42581456 221.65546256 108.85300065 224.5078125 110.28125 C225.37141388 110.71205872 226.23501526 111.14286743 227.12478638 111.58673096 C241.39573865 118.74971595 241.39573865 118.74971595 243.8125 126 C244.18611329 131.04377944 243.88449508 133.94057793 240.8125 138 C237.38951834 141.85085437 235.22531852 142.8116242 230.0625 143.5 C225.08604626 143.50410091 221.35497754 141.61471899 216.984375 139.46875 C215.94676025 138.97133301 215.94676025 138.97133301 214.88818359 138.46386719 C213.19278289 137.6498406 211.50214522 136.82590668 209.8125 136 C209.85247101 137.45792969 209.85247101 137.45792969 209.89324951 138.9453125 C210.13698085 148.12508117 210.31660845 157.30419032 210.43424606 166.48646545 C210.49676386 171.20703404 210.58147254 175.92498264 210.71777344 180.64404297 C210.84860447 185.20248919 210.91999399 189.7584243 210.95102692 194.31860352 C210.97312524 196.05403187 211.01628693 197.78932922 211.08126068 199.52368164 C211.27499144 204.91148366 211.27436542 209.78264181 209.8125 215 C206.27084621 218.7941282 202.46663326 220.81349635 197.8125 223 C196.40045763 223.95499391 195.00512352 224.93662595 193.6484375 225.96875 C193.06449219 226.39414062 192.48054688 226.81953125 191.87890625 227.2578125 C190.71101606 228.115524 189.54442886 228.97501151 188.37890625 229.8359375 C184.02586374 233 184.02586374 233 181.8125 233 C181.8125 196.04 181.8125 159.08 181.8125 121 C179.8325 120.34 177.8525 119.68 175.8125 119 C173.65909824 117.99474946 171.5272005 116.94299946 169.41015625 115.86328125 C167.98469695 115.14112449 166.55906173 114.41931494 165.13330078 113.69775391 C164.31001282 113.2796344 163.48672485 112.86151489 162.63848877 112.4307251 C157.45897242 109.8084698 152.26572559 107.21351301 147.07444382 104.61465073 C144.34311008 103.24728079 141.61203357 101.87939749 138.88094521 100.51153755 C137.47331164 99.80656272 136.0656461 99.10165175 134.65794945 98.3968029 C131.1089026 96.61971022 127.56025022 94.8418385 124.01245117 93.06225586 C109.62328778 85.84525692 95.22694857 78.66132809 80.68370056 71.75822449 C72.44813594 67.84502606 64.29248594 63.78239938 56.15078735 59.67816162 C41.45380189 52.27298783 26.70311548 45.00907068 11.8125 38 C8.45774671 36.41790704 5.10366718 34.83439384 1.75 33.25 C0.97889893 32.88632324 0.20779785 32.52264648 -0.58666992 32.14794922 C-6.60768951 29.29900117 -12.56492995 26.33602625 -18.5 23.3125 C-22.95792125 21.13537567 -26.23708699 20.67563343 -31.1875 21 C-34.43972709 22.15668341 -34.43972709 22.15668341 -37.625 23.89453125 C-38.22642822 24.20138351 -38.82785645 24.50823578 -39.44750977 24.8243866 C-41.36794331 25.80730452 -43.27785116 26.80881618 -45.1875 27.8125 C-47.66389458 29.09524863 -50.14428824 30.37015567 -52.625 31.64453125 C-53.28048828 31.98279938 -53.93597656 32.3210675 -54.61132812 32.66958618 C-60.39567651 35.6375167 -66.25222367 38.44242096 -72.125 41.23046875 C-84.56921024 47.14274586 -96.88117002 53.30697799 -109.1875 59.5 C-122.31362529 66.10557477 -135.45986986 72.64511725 -148.73266602 78.95153809 C-158.02482227 83.37616501 -167.22455558 87.97768715 -176.41680908 92.60549927 C-191.51093725 100.20243931 -206.62752746 107.72544671 -221.92285156 114.91064453 C-225.3591878 116.56361265 -228.74694822 118.31137065 -232.13427734 120.06225586 C-234.1875 121 -234.1875 121 -236.1875 121 C-236.1875 208.78 -236.1875 296.56 -236.1875 387 C-220.3475 387 -204.5075 387 -188.1875 387 C-188.34734375 380.20535156 -188.5071875 373.41070312 -188.671875 366.41015625 C-189.21478665 341.38346714 -189.40732706 316.36199724 -189.42773438 291.32983398 C-189.43336266 285.47568867 -189.45780187 279.62175953 -189.48570633 273.76768398 C-189.50427274 269.18578922 -189.50953364 264.60394955 -189.51107025 260.02202034 C-189.51407748 257.85911856 -189.52203994 255.6962173 -189.53525543 253.53335381 C-189.55229539 250.54866523 -189.55044849 247.56455131 -189.54394531 244.57983398 C-189.5531601 243.70793427 -189.56237488 242.83603455 -189.5718689 241.93771362 C-189.52598333 235.22004149 -188.30522367 230.5183741 -183.875 225.25 C-178.75271746 220.96157741 -174.64425826 219.62389631 -167.98876953 219.65942383 C-167.29538986 219.65898575 -166.60201019 219.65854767 -165.88761902 219.65809631 C-163.61488863 219.66017237 -161.34291267 219.68344597 -159.0703125 219.70703125 C-157.48705447 219.71263145 -155.90379122 219.71689954 -154.32052612 219.71989441 C-150.16773955 219.7313099 -146.01527129 219.7607483 -141.86260986 219.79400635 C-137.61938787 219.82477862 -133.37611409 219.83841499 -129.1328125 219.85351562 C-120.8175628 219.88562152 -112.50257108 219.93677751 -104.1875 220 C-104.20668991 218.92560165 -104.22587982 217.85120331 -104.24565125 216.74424744 C-104.42467963 206.60722498 -104.58734343 196.47005364 -104.73408794 186.33251095 C-104.81004982 181.1209933 -104.89172635 175.90969722 -104.98657227 170.69848633 C-105.07793281 165.66712307 -105.154139 160.63573533 -105.21994972 155.6039753 C-105.24766956 153.68661535 -105.28080144 151.76932558 -105.31949425 149.85215569 C-105.37285775 147.16175976 -105.40677582 144.47175491 -105.4362793 141.78100586 C-105.45641586 140.99265854 -105.47655243 140.20431122 -105.49729919 139.39207458 C-105.53428228 132.99868849 -103.86327014 128.73088468 -100.5 123.25 C-94.21505755 117.13492086 -86.06244756 117.56338812 -77.83984375 117.59594727 C-76.62257599 117.58908401 -75.40530823 117.58222076 -74.15115356 117.57514954 C-70.83282332 117.56004638 -67.51505778 117.55836995 -64.19673538 117.56409192 C-61.41847193 117.56719551 -58.64025865 117.56107853 -55.86200237 117.55505317 C-49.3047685 117.54103802 -42.747665 117.54254462 -36.19042969 117.55395508 C-29.44198976 117.56543926 -22.69394711 117.55134907 -15.9455595 117.5245586 C-10.13467722 117.5023599 -4.32391927 117.4957734 1.48700237 117.50163502 C4.9502636 117.50499517 8.4132701 117.50265252 11.87649536 117.48538399 C15.73943508 117.46696025 19.60189058 117.48114485 23.46484375 117.49829102 C24.60170624 117.48862305 25.73856873 117.47895508 26.90988159 117.46899414 C34.07084122 117.53545372 40.06767586 118.33963014 45.36558533 123.51805973 C49.73529911 128.59014484 49.95391412 132.01647616 49.92602539 138.48876953 C49.92617142 139.36688293 49.92631744 140.24499634 49.9264679 141.14971924 C49.92576958 144.0607752 49.91798095 146.97176768 49.91015625 149.8828125 C49.90829178 151.89777593 49.90686802 153.91273981 49.90586853 155.92770386 C49.90204562 161.2377853 49.89221724 166.5478395 49.88116455 171.85791016 C49.87094559 177.27375927 49.86636987 182.68961278 49.86132812 188.10546875 C49.85059479 198.73699115 49.83352106 209.36849331 49.8125 220 C50.67170044 219.99111755 51.53090088 219.98223511 52.4161377 219.9730835 C60.53690187 219.892737 68.6575314 219.831934 76.7786026 219.79275131 C80.95316101 219.77192938 85.12738933 219.74371149 89.30175781 219.69824219 C93.33478513 219.65459034 97.36749614 219.63082237 101.40074158 219.62049103 C102.93485997 219.61313415 104.46896222 219.59876808 106.00294495 219.57707977 C120.98049729 219.37385522 120.98049729 219.37385522 127.8125 224 C136.45639094 232.87136175 135.04194489 246.74606505 134.9256134 258.34036255 C134.57939657 269.24109202 134.57939657 269.24109202 130.7109375 273.578125 C127.67729802 276.03841469 124.41619819 277.6871822 120.79638672 279.12011719 C117.45259196 280.60313913 114.72047371 282.79916684 111.8125 285 C110.12018124 281.61536248 110.6925367 277.77592462 110.71484375 274.0546875 C110.71585083 273.27037354 110.71685791 272.48605957 110.71789551 271.67797852 C110.72313389 268.74363751 110.73709513 265.80931731 110.75 262.875 C110.770625 256.31625 110.79125 249.7575 110.8125 243 C88.0425 242.505 88.0425 242.505 64.8125 242 C65.0493595 251.3197883 65.0493595 251.3197883 65.35302734 260.63745117 C65.46876141 269.63546349 65.46876141 269.63546349 63.83911133 273.02392578 C60.89593971 275.99301211 57.64097973 276.31256113 53.58984375 276.59375 C51.64298551 276.58847038 49.69604484 276.55651879 47.75 276.5 C46.76966797 276.50257813 45.78933594 276.50515625 44.77929688 276.5078125 C35.80427186 276.38595201 35.80427186 276.38595201 31.8125 273 C30.37740779 270.12981559 30.70091494 267.66456277 30.71484375 264.4609375 C30.71734131 263.28837402 30.71983887 262.11581055 30.72241211 260.90771484 C30.73606812 258.664021 30.73606812 258.664021 30.75 256.375 C30.770625 251.63125 30.79125 246.8875 30.8125 242 C15.6325 242 0.4525 242 -15.1875 242 C-15.1875 264.44 -15.1875 286.88 -15.1875 310 C-19.01593361 309.23431328 -21.4097374 308.59011515 -24.796875 306.96875 C-26.05177734 306.37126953 -26.05177734 306.37126953 -27.33203125 305.76171875 C-28.19183594 305.34535156 -29.05164063 304.92898438 -29.9375 304.5 C-30.81277344 304.08363281 -31.68804687 303.66726563 -32.58984375 303.23828125 C-39.03864397 300.14885603 -39.03864397 300.14885603 -40.1875 299 C-40.28120624 297.22008076 -40.30494271 295.43643261 -40.30102539 293.65405273 C-40.30094986 292.5129454 -40.30087433 291.37183807 -40.30079651 290.19615173 C-40.29563522 288.9545076 -40.29047394 287.71286346 -40.28515625 286.43359375 C-40.28303383 284.53795433 -40.28303383 284.53795433 -40.28086853 282.60401917 C-40.27620582 279.23875111 -40.2672148 275.8735501 -40.25616455 272.50830078 C-40.24594846 269.07650341 -40.24131578 265.64469892 -40.23632812 262.21289062 C-40.22612263 255.47522246 -40.20655091 248.73767229 -40.1875 242 C-55.3675 242 -70.5475 242 -86.1875 242 C-86.02962958 250.99011448 -86.02962958 250.99011448 -85.82714844 259.97924805 C-85.8171582 261.10371338 -85.80716797 262.22817871 -85.796875 263.38671875 C-85.77592773 264.53358154 -85.75498047 265.68044434 -85.73339844 266.86206055 C-86.28365101 270.66442415 -87.53021191 272.28125209 -90.1875 275 C-94.16801798 276.99025899 -99.12297503 276.31631959 -103.5 276.375 C-104.54607422 276.41238281 -105.59214844 276.44976562 -106.66992188 276.48828125 C-114.42518835 276.57713854 -114.42518835 276.57713854 -118.35546875 273.6015625 C-121.12548982 269.66801445 -121.30758271 267.69769917 -121.28515625 262.8984375 C-121.28265869 261.80708496 -121.28016113 260.71573242 -121.27758789 259.59130859 C-121.26848389 258.19992676 -121.25937988 256.80854492 -121.25 255.375 C-121.229375 250.96125 -121.20875 246.5475 -121.1875 242 C-136.0375 242 -150.8875 242 -166.1875 242 C-166.1875 289.85 -166.1875 337.7 -166.1875 387 C-140.87724237 386.68370997 -140.87724237 386.68370997 -115.56835938 386.27929688 C-110.65332031 386.24316406 -110.65332031 386.24316406 -108.34631348 386.2364502 C-106.74815002 386.22423118 -105.15005661 386.19622873 -103.55236816 386.15539551 C-90.09224775 385.82883071 -90.09224775 385.82883071 -85.42236328 388.70019531 C-83.39496246 390.69664697 -81.80060862 392.66332767 -80.1875 395 C-79.09499407 396.28087165 -77.99232261 397.55321783 -76.875 398.8125 C-76.32070312 399.46089844 -75.76640625 400.10929687 -75.1953125 400.77734375 C-72.19055138 404.103626 -68.97831931 407.21835568 -65.74291992 410.31958008 C-64.52147658 411.51024689 -63.34979647 412.75152965 -62.1875 414 C-62.1875 414.66 -62.1875 415.32 -62.1875 416 C-91.12489109 416.0934376 -120.06225957 416.1639765 -148.99977112 416.20724869 C-151.67448947 416.21132807 -154.34920767 416.21549335 -157.02392578 416.21972656 C-157.68873439 416.2207758 -158.353543 416.22182505 -159.03849733 416.22290608 C-169.79667158 416.24030147 -180.55476015 416.27183434 -191.31288362 416.30861118 C-202.35539911 416.34604481 -213.39786737 416.36794164 -224.44044304 416.37635398 C-230.64137042 416.381569 -236.8421036 416.39382736 -243.04296875 416.42292023 C-248.88042367 416.45008597 -254.71760453 416.45844251 -260.55511665 416.45243073 C-262.6964727 416.45353043 -264.83783798 416.46147719 -266.97913933 416.4768219 C-269.90626863 416.49676758 -272.83236759 416.49192214 -275.75952148 416.48101807 C-276.60390022 416.49266943 -277.44827896 416.5043208 -278.31824493 416.51632524 C-284.04122049 416.45882881 -288.40844678 415.22076138 -293.1875 412 C-296.32066518 408.63184743 -297.44489808 406.01087941 -297.6875 401.5 C-297.47751113 397.0452361 -296.11924618 394.42037054 -293.1875 391 C-285.25995309 383.81566062 -274.48326469 387 -264.1875 387 C-264.5175 304.17 -264.8475 221.34 -265.1875 136 C-269.8075 138.31 -274.4275 140.62 -279.1875 143 C-287.1469879 144.18934877 -287.1469879 144.18934877 -291.28515625 141.77734375 C-294.46557732 139.223864 -296.62863457 136.80246615 -298.1875 133 C-298.63354445 128.39087397 -298.66060756 126.00535357 -296.6875 121.8125 C-291.26493762 115.71211732 -283.3508088 112.43584526 -276.125 108.875 C-275.15949219 108.39546875 -274.19398438 107.9159375 -273.19921875 107.421875 C-265.81019428 103.76564786 -258.37101817 100.22000994 -250.92163086 96.68896484 C-241.27743395 92.0913262 -231.73542555 87.29347868 -222.1875 82.5 C-210.83319135 76.79963753 -199.4645252 71.15420529 -187.98046875 65.71875 C-181.67318342 62.72862955 -175.42185546 59.63915678 -169.1875 56.5 C-162.10213651 52.93237418 -154.98334039 49.45481896 -147.8125 46.0625 C-136.85528947 40.87142437 -126.02321936 35.43881369 -115.1875 30 C-103.47330789 24.12025115 -91.75052415 18.2820482 -79.90087891 12.67895508 C-73.40872256 9.60433548 -66.97916348 6.41647808 -60.5625 3.1875 C-48.62429 -2.8046882 -48.62429 -2.8046882 -42.6875 -5.625 C-41.7490625 -6.07101563 -40.810625 -6.51703125 -39.84375 -6.9765625 C-25.51417145 -12.49766482 -12.7527315 -6.59895923 0 0 Z M-82.1875 141 C-82.1875 167.07 -82.1875 193.14 -82.1875 220 C-67.12527717 220.24912349 -67.12527717 220.24912349 -52.06274414 220.47802734 C-50.15770129 220.51327226 -48.25267086 220.54919775 -46.34765625 220.5859375 C-45.3788855 220.59729736 -44.41011475 220.60865723 -43.4119873 220.62036133 C-38.06172163 220.73296994 -33.29513094 221.24041465 -28.15452576 222.77236938 C-25.59124673 223.06900037 -24.45014253 222.17742537 -22.1875 221 C-19.80828857 220.7215271 -19.80828857 220.7215271 -17.14355469 220.68115234 C-16.12890137 220.66109131 -15.11424805 220.64103027 -14.06884766 220.62036133 C-13.00972168 220.60900146 -11.9505957 220.5976416 -10.859375 220.5859375 C-9.88049316 220.56829346 -8.90161133 220.55064941 -7.89306641 220.5324707 C-4.24137711 220.46947158 -0.58941411 220.423238 3.0625 220.375 C11.23 220.25125 19.3975 220.1275 27.8125 220 C27.8125 193.93 27.8125 167.86 27.8125 141 C15.2725 141 2.7325 141 -10.1875 141 C-10.35781387 150.03435506 -10.35781387 150.03435506 -10.48535156 159.06933594 C-10.5159668 160.19629883 -10.54658203 161.32326172 -10.578125 162.484375 C-10.59907227 163.63647461 -10.62001953 164.78857422 -10.64160156 165.97558594 C-11.29392901 169.58964337 -12.34944744 170.74894755 -15.1875 173 C-18.80228714 174.80739357 -23.01982546 174.22756068 -27 174.25 C-27.90298828 174.270625 -28.80597656 174.29125 -29.73632812 174.3125 C-34.68037548 174.34156126 -38.2190206 174.31645743 -42.1875 171 C-43.5183911 168.33821779 -43.30018993 166.31260604 -43.28515625 163.3359375 C-43.28193359 162.21445313 -43.27871094 161.09296875 -43.27539062 159.9375 C-43.26282227 158.1740625 -43.26282227 158.1740625 -43.25 156.375 C-43.24548828 155.19164062 -43.24097656 154.00828125 -43.23632812 152.7890625 C-43.22451467 149.85932493 -43.20804258 146.92968728 -43.1875 144 C-42.31947754 144.00523682 -41.45145508 144.01047363 -40.55712891 144.01586914 C-37.34049727 144.03289862 -34.12388859 144.04544408 -30.90722656 144.05493164 C-29.51431523 144.0599643 -28.1214092 144.06679098 -26.72851562 144.07543945 C-24.72788754 144.08755152 -22.72722112 144.09270412 -20.7265625 144.09765625 C-19.52209473 144.10289307 -18.31762695 144.10812988 -17.07666016 144.11352539 C-14.2461323 144.20087891 -14.2461323 144.20087891 -12.1875 143 C-12.1875 142.34 -12.1875 141.68 -12.1875 141 C-35.2875 141 -58.3875 141 -82.1875 141 Z M34.8125 242 C34.4825 242.99 34.1525 243.98 33.8125 245 C37.77077235 245.05785647 41.7289367 245.09354717 45.6875 245.125 C46.81542969 245.14175781 47.94335938 245.15851563 49.10546875 245.17578125 C50.72001953 245.18544922 50.72001953 245.18544922 52.3671875 245.1953125 C53.85968018 245.21102295 53.85968018 245.21102295 55.38232422 245.22705078 C57.99421417 245.24379401 57.99421417 245.24379401 59.8125 243 C56.7442362 242.10250178 54.01980024 241.88288232 50.828125 241.90234375 C49.89355469 241.90556641 48.95898438 241.90878906 47.99609375 241.91210938 C47.02800781 241.92048828 46.05992187 241.92886719 45.0625 241.9375 C43.58716797 241.94426758 43.58716797 241.94426758 42.08203125 241.95117188 C39.65879209 241.96293517 37.23567727 241.97937316 34.8125 242 Z " fill="#9527B9" transform="translate(298.1875,85)"/>
<path d="M0 0 C1.01465952 4.14319305 1.31867458 6.32261224 -0.5234375 10.23828125 C-3.24451079 14.70224479 -6.76817892 18.36907805 -10.375 22.125 C-11.34566406 23.15947266 -11.34566406 23.15947266 -12.3359375 24.21484375 C-15.13258207 27.16372502 -17.89213098 29.91154186 -21.0390625 32.4921875 C-23.38420637 34.47844392 -25.17125819 36.28081714 -27.13378906 38.59936523 C-31.16015111 43.24970048 -35.45794821 47.58449298 -39.8203125 51.91796875 C-40.64199921 52.73824051 -41.46368591 53.55851227 -42.31027222 54.40364075 C-44.91282151 57.0006398 -47.51883653 59.59412841 -50.125 62.1875 C-51.88174294 63.93921997 -53.63825549 65.69117102 -55.39453125 67.44335938 C-58.61332387 70.65401919 -61.83340768 73.86337093 -65.05517578 77.07104492 C-71.08050935 83.06097713 -71.08050935 83.06097713 -77.04296875 89.11328125 C-78.09110033 90.17973223 -79.13927786 91.24613804 -80.1875 92.3125 C-80.72052734 92.86228516 -81.25355469 93.41207031 -81.80273438 93.97851562 C-83.16424956 95.35715678 -84.57840502 96.68339727 -86 98 C-86.66 98 -87.32 98 -88 98 C-88.40980545 98.89675978 -88.40980545 98.89675978 -88.8278898 99.81163591 C-89.96577605 101.93610288 -91.06352594 103.31681737 -92.7537632 105.01382542 C-93.31712179 105.5842496 -93.88048038 106.15467378 -94.46091044 106.74238354 C-95.07996142 107.35901944 -95.69901241 107.97565534 -96.33682251 108.61097717 C-96.99442232 109.27381366 -97.65202212 109.93665014 -98.32954919 110.61957258 C-100.53866142 112.84371 -102.7548884 115.06061751 -104.97119141 117.27758789 C-106.55493998 118.86895626 -108.13828393 120.4607274 -109.72125244 122.0528717 C-114.02643886 126.38002823 -118.33820398 130.70057061 -122.65184832 135.01929402 C-125.34615802 137.71724447 -128.03916413 140.41648919 -130.73173141 143.11617851 C-138.19000298 150.59390773 -145.64974361 158.07016014 -153.11629677 165.5396204 C-153.59396705 166.01747825 -154.07163734 166.49533611 -154.56378248 166.9876745 C-155.53210219 167.95636046 -156.50042317 168.92504514 -157.46874543 169.89372856 C-157.94940611 170.37457206 -158.4300668 170.85541556 -158.92529297 171.35083008 C-159.40654308 171.83226073 -159.88779318 172.31369139 -160.38362662 172.80971085 C-168.17984495 180.6094702 -175.9642554 188.4208993 -183.74352475 196.23755974 C-191.73469485 204.26683066 -199.73541768 212.28645802 -207.74529397 220.29707712 C-212.24068562 224.79326224 -216.73199908 229.29334736 -221.21355057 233.80333138 C-225.42963186 238.04556028 -229.65749585 242.27568014 -233.89469147 246.49681664 C-235.44699491 248.04730299 -236.99504084 249.60206547 -238.53845596 251.16139984 C-240.64800846 253.29137617 -242.77244848 255.40531934 -244.90127563 257.51600647 C-245.50694229 258.13487309 -246.11260894 258.75373971 -246.73662913 259.39135987 C-251.82129006 264.37776529 -256.6137377 266.78153146 -263.875 267.25 C-273.26504369 265.55822315 -281.8739364 253.2522148 -288.3125 246.75 C-289.6128418 245.44289063 -289.6128418 245.44289063 -290.93945312 244.109375 C-292.58811179 242.45187295 -294.23549727 240.79310312 -295.88134766 239.1328125 C-297.57341452 237.42943659 -299.27373742 235.73549612 -300.98046875 234.046875 C-303.17428482 231.82335542 -305.04959288 229.43800891 -307 227 C-308.65435212 225.32110911 -310.32379997 223.65707846 -312 222 C-313.11802874 220.88530814 -314.23547013 219.77002699 -315.35244751 218.65428162 C-316.64201629 217.36773444 -317.9315984 216.08120063 -319.22119141 214.79467773 C-326.41939408 207.61280797 -333.61505369 200.42839573 -340.80927467 193.2425375 C-345.15798952 188.89905613 -349.50764022 184.55652031 -353.859375 180.21606445 C-358.07536284 176.01093099 -362.28891259 171.80336881 -366.50077438 167.59410286 C-368.10507651 165.99164816 -369.71025843 164.39007376 -371.31633377 162.78939629 C-373.55908441 160.55389138 -375.7986995 158.31529002 -378.03759766 156.07592773 C-378.70156052 155.41556015 -379.36552338 154.75519257 -380.04960632 154.07481384 C-386.02944455 148.08152472 -389.08199569 144.28710943 -389.3125 135.625 C-389.22463554 130.54237872 -388.71895122 127.71895122 -385 124 C-376.49854376 117.6450347 -367.25186209 118.0690177 -357.109375 119.37109375 C-327.3311274 125.53944504 -293.02311658 147.20457741 -272.171875 168.90234375 C-268.98443385 172.06744303 -266.67162042 173.43523397 -262.125 173.75 C-256.11414289 173.30908383 -252.58571229 170.72124812 -248 167 C-247.44070801 166.54898926 -246.88141602 166.09797852 -246.30517578 165.63330078 C-243.65122195 163.49108654 -241.00407748 161.34108157 -238.37011719 159.17431641 C-232.94892842 154.72218718 -227.40267845 150.47105255 -221.75561523 146.31005859 C-217.27319647 142.99771573 -212.91838445 139.54755894 -208.57519531 136.05493164 C-204.45238414 132.76504714 -200.26115137 129.56719401 -196.0625 126.375 C-195.16152588 125.68913818 -194.26055176 125.00327637 -193.33227539 124.29663086 C-185.68551831 118.49054933 -177.9677316 112.7847224 -170.2265625 107.10546875 C-164.19088364 102.67707377 -158.20873721 98.17838246 -152.23486328 93.66699219 C-142.34383288 86.19945617 -132.35622212 78.88077764 -122.29101562 71.64990234 C-119.99693955 69.99779598 -117.70857382 68.33808045 -115.421875 66.67578125 C-105.7184555 59.62575442 -95.94271881 52.70849735 -86 46 C-84.91605957 45.2682959 -83.83211914 44.5365918 -82.71533203 43.78271484 C-12.81487985 -3.34301213 -12.81487985 -3.34301213 0 0 Z " fill="#9324B9" transform="translate(592,285)"/>
<path d="M0 0 C13.2 0 26.4 0 40 0 C40 26.73 40 53.46 40 81 C23.17 81 6.34 81 -11 81 C-11 80.67 -11 80.34 -11 80 C5.5 80 22 80 39 80 C39 53.93 39 27.86 39 1 C26.46 1 13.92 1 1 1 C1.19734635 9.99039013 1.19734635 9.99039013 1.45043945 18.97924805 C1.46917114 20.66594604 1.46917114 20.66594604 1.48828125 22.38671875 C1.51446533 23.53358154 1.54064941 24.68044434 1.56762695 25.86206055 C0.82802613 29.95070113 -0.85074306 31.3912761 -4 34 C-7.6049613 35.80248065 -11.77998348 35.2703256 -15.75 35.3125 C-16.64460938 35.34150391 -17.53921875 35.37050781 -18.4609375 35.40039062 C-24.30241579 35.456393 -27.54665423 34.87153769 -32 31 C-33.35700647 28.28598706 -33.1123861 26.15153684 -33.09765625 23.1171875 C-33.09515869 22.06644043 -33.09266113 21.01569336 -33.09008789 19.93310547 C-33.08098389 18.59393066 -33.07187988 17.25475586 -33.0625 15.875 C-33.041875 11.62625 -33.02125 7.3775 -33 3 C-22.44 3 -11.88 3 -1 3 C-0.67 2.01 -0.34 1.02 0 0 Z " fill="#9D34BD" transform="translate(287,225)"/>
<path d="M0 0 C5.61 0 11.22 0 17 0 C17 0.33 17 0.66 17 1 C16.07316406 1.04898437 15.14632813 1.09796875 14.19140625 1.1484375 C12.99386719 1.22320312 11.79632813 1.29796875 10.5625 1.375 C8.77005859 1.47941406 8.77005859 1.47941406 6.94140625 1.5859375 C5.97074219 1.72257812 5.00007813 1.85921875 4 2 C3.67 2.66 3.34 3.32 3 4 C9.93 4 16.86 4 24 4 C24 4.33 24 4.66 24 5 C20.56296699 5.19682269 17.12536573 5.38085152 13.6875 5.5625 C12.71103516 5.61857422 11.73457031 5.67464844 10.72851562 5.73242188 C9.79072266 5.78076172 8.85292969 5.82910156 7.88671875 5.87890625 C7.02264404 5.9260376 6.15856934 5.97316895 5.26831055 6.02172852 C3 6 3 6 0 5 C0 3.35 0 1.7 0 0 Z " fill="#A357BB" transform="translate(329,326)"/>
<path d="M0 0 C0.53625 0.2475 1.0725 0.495 1.625 0.75 C0.738125 1.3275 -0.14875 1.905 -1.0625 2.5 C-3.96542244 4.43068476 -6.68268649 6.53280064 -9.375 8.75 C-9.25 6.5 -9.25 6.5 -8.375 3.75 C-3.49815271 -0.3682266 -3.49815271 -0.3682266 0 0 Z " fill="#9E3BBD" transform="translate(122.375,306.25)"/>
<path d="M0 0 C2.62187494 1.04874998 3.79371361 1.64931313 5.25 4.125 C5.4975 4.74375 5.745 5.3625 6 6 C4.02 6 2.04 6 0 6 C0.66 5.67 1.32 5.34 2 5 C1.34 3.35 0.68 1.7 0 0 Z " fill="#972BC3" transform="translate(229,494)"/>
<path d="M0 0 C0 0.66 0 1.32 0 2 C-1.65 2 -3.3 2 -5 2 C-5.66 3.32 -6.32 4.64 -7 6 C-7.99 5.67 -8.98 5.34 -10 5 C-4.5 0 -4.5 0 0 0 Z " fill="#A649C4" transform="translate(13,473)"/>
<path d="M0 0 C0.66 0 1.32 0 2 0 C0.50902342 3.7952131 -1.75700849 5.61042731 -5 8 C-5 7.01 -5 6.02 -5 5 C-4.34 5 -3.68 5 -3 5 C-2.5359375 4.0409375 -2.5359375 4.0409375 -2.0625 3.0625 C-1 1 -1 1 0 0 Z " fill="#AC5DCA" transform="translate(463,422)"/>
<path d="M0 0 C0.86625 0.3403125 0.86625 0.3403125 1.75 0.6875 C-2.875 4.6875 -2.875 4.6875 -6.25 4.6875 C-6.25 4.0275 -6.25 3.3675 -6.25 2.6875 C-3.02697842 -0.42041367 -3.02697842 -0.42041367 0 0 Z " fill="#9C37BC" transform="translate(482.25,349.3125)"/>
<path d="M0 0 C-3.1254959 2.64465038 -6.08788267 3.84414715 -10 5 C-10 4.34 -10 3.68 -10 3 C-6.58168085 0.4606772 -4.24223102 -0.3636198 0 0 Z " fill="#A749C9" transform="translate(186,145)"/>
<path d="M0 0 C0.66 0.33 1.32 0.66 2 1 C-0.35380297 4.92300495 -2.64464931 5.83857315 -7 7 C-4.66666667 4.66666667 -2.33333333 2.33333333 0 0 Z " fill="#AE59C8" transform="translate(346,450)"/>
<path d="M0 0 C0 0.99 0 1.98 0 3 C-1.8125 4.75 -1.8125 4.75 -4 6 C-4.99 5.67 -5.98 5.34 -7 5 C-4.69 3.35 -2.38 1.7 0 0 Z " fill="#A546C0" transform="translate(421,393)"/>
</svg>
